<?xml version="1.0" encoding="UTF-8" standalone="no"?>
<!-- Created with Inkscape (http://www.inkscape.org/) -->

<svg
   width="22.003857mm"
   height="39.230019mm"
   viewBox="0 0 22.003857 39.230019"
   version="1.1"
   id="svg1"
   inkscape:export-filename="efpalinosLogo.svg"
   inkscape:export-xdpi="96"
   inkscape:export-ydpi="96"
   xmlns:inkscape="http://www.inkscape.org/namespaces/inkscape"
   xmlns:sodipodi="http://sodipodi.sourceforge.net/DTD/sodipodi-0.dtd"
   xmlns="http://www.w3.org/2000/svg"
   xmlns:svg="http://www.w3.org/2000/svg">
  <sodipodi:namedview
     id="namedview1"
     pagecolor="#ffffff"
     bordercolor="#000000"
     borderopacity="0.25"
     inkscape:showpageshadow="2"
     inkscape:pageopacity="0.0"
     inkscape:pagecheckerboard="0"
     inkscape:deskcolor="#d1d1d1"
     inkscape:document-units="mm" />
  <defs
     id="defs1" />
  <g
     inkscape:label="Layer 1"
     inkscape:groupmode="layer"
     id="layer1"
     transform="translate(-159.76235,-51.109519)">
    <path
       sodipodi:nodetypes="ccccccccccccccccscccccsccccccccccccscscccccccccsccsccccsccccccccsccccsccsccsscccccc"
       inkscape:connector-curvature="0"
       style="display:inline;opacity:0.35;fill:#505050;fill-opacity:1;stroke-width:0.264583"
       d="m 179.05985,51.109519 c -5.26408,0.03101 -10.53868,0.100573 -15.80398,0.273301 -3.71105,-0.700532 -2.71506,2.87242 -3.49352,5.038262 0.0982,2.882863 0.0593,5.118269 0.15448,7.783163 0.28102,1.457878 -0.58613,3.369824 0.24953,4.764958 -0.84375,2.274195 0.9021,4.266825 3.70741,3.814345 2.79975,-0.08912 6.42671,-0.760677 8.87636,0.903089 0.43372,1.598665 1.3172,2.101651 1.33087,3.539799 0.15279,0.864767 -0.41331,4.15466 -0.0832,5.644277 0.0885,1.923386 -0.75172,4.994455 1.03379,6.880079 1.34023,1.100104 2.64181,0.380895 4.42036,0.05942 3.20724,-1.099926 1.76342,-5.166664 2.09136,-7.628689 -1.10481,-1.075586 0.74199,-1.621766 -0.67731,-2.079471 0.89944,-0.999987 0.0671,-1.505823 0.65354,-3.339036 -0.30273,-2.135101 0.52778,-16.325768 0.1426,-22.516462 0.41612,-1.800485 -1.57795,-2.384788 -2.60231,-3.13703 z m -2.75679,1.021911 c 2.49884,-0.03335 4.94055,0.418425 4.23024,3.612337 0.87154,2.911319 -0.0759,5.85946 0.26142,8.614953 0.0662,2.563325 0.28514,5.761601 -0.22577,8.270353 0.34497,1.760649 -0.52136,6.160926 -0.32084,9.576213 -0.38203,2.313919 1.04847,6.429272 -2.00817,7.010786 -0.94971,0.609269 -2.05045,0.220131 -2.79243,-0.510953 -0.81452,-0.802552 -0.60756,-3.647556 -0.24954,-4.574836 -0.26865,-2.102321 -0.54756,-1.251347 -0.28518,-3.386569 0.36797,-2.485839 -0.76368,-5.00554 -0.60602,-6.914485 -0.25432,-2.429219 -3.79665,-1.51859 -5.15709,-2.424071 -0.66953,-3.885435 -0.0292,-7.876071 0.29707,-11.740102 -1.5212,2.088597 -2.07576,5.356503 -2.66173,8.068347 -1.56554,-1.361368 -0.65554,2.301566 -0.43965,3.541043 -0.58611,1.250636 -3.67507,0.580369 -4.87191,-0.02376 -0.72365,-2.427314 -0.64421,-6.005552 -0.66543,-8.103997 0.31381,-2.60709 0.10663,-5.243576 0.15447,-7.866343 -0.49574,-1.780156 1.2466,-2.964061 2.85185,-3.04197 3.06284,0.164737 6.23401,0.127296 9.3398,0.03565 0.87189,-0.0096 2.01307,-0.127434 3.14891,-0.142596 z m -8.95955,1.568516 c -0.92029,0.0019 -1.80361,0.833234 -2.00817,1.948762 -0.11209,0.61124 0.16166,1.170278 0.6179,1.544748 -0.83365,0.582952 -1.61786,2.768757 -1.27145,5.620515 0.46346,-1.005885 0.12164,-2.363981 0.60601,-3.422216 0.33287,-1.599221 1.21877,-1.08739 1.90124,-0.903084 -1.17022,1.539634 -1.06024,3.511532 -1.60417,4.955082 0.99343,-1.583589 1.13235,-3.655221 2.16265,-4.943199 h -0.0238 c 0.0344,-0.01558 0.065,-0.03297 0.0951,-0.05941 0.55616,-0.75007 0.74624,-1.1064 0.71296,-1.259565 0.3849,-0.363596 0.63392,-0.896451 0.72485,-1.497219 0.20122,-1.329542 -0.80852,-1.986573 -1.91311,-1.984409 z m 0.16636,0.320834 c 0.85112,-0.07075 1.69539,0.792988 1.40215,1.663575 -0.20482,0.608097 -0.4593,1.154861 -0.90308,1.437807 -0.44421,0.07255 -1.07581,0.200141 -1.61604,-0.05942 -0.0193,-0.0093 -0.0405,-0.01347 -0.0594,-0.02376 -0.003,-0.0016 -0.009,0.0019 -0.0119,0 -0.45173,-0.30418 -0.73533,-0.820875 -0.64166,-1.390274 0.13434,-0.816679 0.94013,-1.433155 1.66357,-1.604163 0.0565,-0.01336 0.10962,-0.01905 0.16636,-0.02376 z m 1.02191,4.254002 c -0.1455,-0.0222 -0.20467,0.209846 0.0356,0.962499 1.03248,0.361309 0.28445,-0.913681 -0.0356,-0.962499 z m -3.79058,5.252149 c 0.0898,1.130543 0.32066,2.182309 0.83179,3.196444 0,0 -0.26315,-0.919977 -0.33272,-1.354627 -0.0548,-0.342403 -0.49907,-1.841817 -0.49907,-1.841817 z m 3.18456,2.483482 c 0.0513,-0.01738 0.13388,0.209193 0.26142,0.879321 -0.20721,2.397742 -0.44465,-0.81725 -0.26142,-0.879321 z m -0.60602,2.091356 c 0.42168,0.02643 0.87824,2.800705 0.81991,3.636103 -1.38461,0.861028 -1.36126,-1.310542 -1.25956,-2.115119 0.12274,-1.110371 0.27465,-1.531323 0.43965,-1.520984 z m 10.29042,16.717709 c -0.28687,-0.0039 -0.58074,0.01987 -1.01003,0.237656 -0.42929,0.217753 -0.76138,0.836449 -0.79614,1.425919 -0.0348,0.589474 0.24234,1.226072 0.93873,1.532869 1.00969,0.44482 3.55566,-0.446045 2.16265,-2.554785 0.69277,2.317274 -3.09667,2.284455 -1.75864,0.344604 1.64272,-0.282223 1.36932,-0.973891 0.46343,-0.986263 z m 1.93688,0.178239 c -0.0669,0.01609 -0.16026,0.09222 -0.2733,0.261419 0.42877,0.708379 0.563,-0.331126 0.2733,-0.261419 z"
       id="path4222-5-0" />
  </g>
</svg>
